<?xml version="1.0" encoding="UTF-8"?>
<svg id="Layer_1" data-name="Layer 1" xmlns="http://www.w3.org/2000/svg" xmlns:xlink="http://www.w3.org/1999/xlink" viewBox="0 0 1080 1080">
  <defs>
    <style>
      .cls-1 {
        clip-path: url(#clippath);
      }

      .cls-2 {
        fill: none;
      }

      .cls-2, .cls-3, .cls-4 {
        stroke-width: 0px;
      }

      .cls-3 {
        fill: #fff;
      }

      .cls-4 {
        fill: #2b242b;
      }
    </style>
    <clipPath id="clippath">
      <rect class="cls-2" y="61.43" width="1080" height="957"/>
    </clipPath>
  </defs>
  <rect class="cls-3" x="-108" y="-108" width="1296" height="1296"/>
  <rect class="cls-3" x="-108" y="-108" width="1296" height="1296"/>
  <g class="cls-1">
    <path class="cls-4" d="M540,1018.33l-11.45-7.78c-1.3-.86-132.84-90.72-262.44-214.92-76.47-73.44-137.59-144.29-181.66-210.81C28.51,499.71,0,420.87,0,350.89,0,191.48,129.82,61.66,289.22,61.66c59.18,0,116.42,18.15,165.24,52.71,35.42,25.05,64.37,57.02,85.54,93.74,21.17-36.93,50.11-68.9,85.54-93.74,48.82-34.56,106.06-52.71,165.24-52.71,159.41,0,289.22,129.82,289.22,289.22v.22c-.65,69.55-29.38,147.74-85.54,232.63-44.06,66.53-104.97,137.38-181.44,211.03-129.39,124.64-260.28,214.92-261.58,215.79l-11.45,7.78ZM289.22,102.06c-137.16,0-248.83,111.67-248.83,248.83,0,61.99,26.14,133.06,77.76,211.25,42.12,63.94,101.31,132.63,175.61,203.91,105.19,100.87,211.9,178.84,246.24,203.04,34.34-24.41,140.4-102.81,245.38-203.9,74.09-71.5,133.06-139.97,175.39-203.91,51.63-78.19,78.19-148.82,78.63-210.39,0-137.16-111.67-248.61-248.83-248.61-101.74,0-194.83,64.37-231.98,160.27l-18.79,48.82-18.58-48.82c-37.15-95.9-130.25-160.48-231.98-160.48Z"/>
  </g>
</svg>