<?xml version="1.0" encoding="UTF-8"?>
<svg id="Layer_1" data-name="Layer 1" xmlns="http://www.w3.org/2000/svg" viewBox="0 0 1080 1080">
  <defs>
    <style>
      .cls-1 {
        fill: #2b242b;
        stroke-width: 0px;
      }
    </style>
  </defs>
  <path class="cls-1" d="M540,1018.33l-11.45-7.78c-1.3-.86-132.84-90.72-262.44-214.92-76.47-73.44-137.59-144.29-181.66-210.81C28.51,499.71,0,420.87,0,350.89,0,191.48,129.82,61.66,289.22,61.66c59.18,0,116.42,18.15,165.24,52.71,35.42,25.05,64.37,57.02,85.54,93.74,21.17-36.93,50.11-68.9,85.54-93.74,48.82-34.56,106.06-52.71,165.24-52.71,159.41,0,289.22,129.82,289.22,289.22v.22c-.65,69.55-29.38,147.74-85.54,232.63-44.06,66.53-104.97,137.38-181.44,211.03-129.39,124.64-260.28,214.92-261.58,215.79l-11.45,7.78Z"/>
</svg>